<mxfile host="app.diagrams.net" modified="2023-05-24T13:04:59.819Z" agent="Mozilla/5.0 (Windows NT 10.0; Win64; x64) AppleWebKit/537.36 (KHTML, like Gecko) Chrome/113.0.0.0 Safari/537.36" etag="IQ7Gz1AU5p2SHNMcXKjG" version="21.3.3" type="device">
  <diagram id="C5RBs43oDa-KdzZeNtuy" name="Page-1">
    <mxGraphModel dx="2792" dy="2942" grid="1" gridSize="10" guides="1" tooltips="1" connect="1" arrows="1" fold="1" page="1" pageScale="1" pageWidth="827" pageHeight="1169" math="0" shadow="0">
      <root>
        <mxCell id="WIyWlLk6GJQsqaUBKTNV-0" />
        <mxCell id="WIyWlLk6GJQsqaUBKTNV-1" parent="WIyWlLk6GJQsqaUBKTNV-0" />
        <mxCell id="y1xNDrfvwrSLFqzeu8FJ-0" value="Пользователь" style="shape=umlActor;verticalLabelPosition=bottom;verticalAlign=top;html=1;outlineConnect=0;" parent="WIyWlLk6GJQsqaUBKTNV-1" vertex="1">
          <mxGeometry x="-530" y="-761" width="30" height="60" as="geometry" />
        </mxCell>
        <mxCell id="y1xNDrfvwrSLFqzeu8FJ-1" value="Администратор" style="shape=umlActor;verticalLabelPosition=bottom;verticalAlign=top;html=1;outlineConnect=0;" parent="WIyWlLk6GJQsqaUBKTNV-1" vertex="1">
          <mxGeometry x="-300" y="-1070" width="30" height="60" as="geometry" />
        </mxCell>
        <mxCell id="y1xNDrfvwrSLFqzeu8FJ-2" value="Просмотр книг" style="ellipse;whiteSpace=wrap;html=1;" parent="WIyWlLk6GJQsqaUBKTNV-1" vertex="1">
          <mxGeometry x="-490" y="-902" width="120" height="51" as="geometry" />
        </mxCell>
        <mxCell id="y1xNDrfvwrSLFqzeu8FJ-3" value="Бронирование" style="ellipse;whiteSpace=wrap;html=1;" parent="WIyWlLk6GJQsqaUBKTNV-1" vertex="1">
          <mxGeometry x="-740" y="-790.5" width="120" height="51" as="geometry" />
        </mxCell>
        <mxCell id="y1xNDrfvwrSLFqzeu8FJ-4" value="Авторизация" style="ellipse;whiteSpace=wrap;html=1;" parent="WIyWlLk6GJQsqaUBKTNV-1" vertex="1">
          <mxGeometry x="-420" y="-851" width="120" height="51" as="geometry" />
        </mxCell>
        <mxCell id="y1xNDrfvwrSLFqzeu8FJ-5" value="Регистрация" style="ellipse;whiteSpace=wrap;html=1;" parent="WIyWlLk6GJQsqaUBKTNV-1" vertex="1">
          <mxGeometry x="-710" y="-868.5" width="120" height="51" as="geometry" />
        </mxCell>
        <mxCell id="y1xNDrfvwrSLFqzeu8FJ-6" value="Оформление покупки" style="ellipse;whiteSpace=wrap;html=1;" parent="WIyWlLk6GJQsqaUBKTNV-1" vertex="1">
          <mxGeometry x="-380" y="-713" width="120" height="51" as="geometry" />
        </mxCell>
        <mxCell id="y1xNDrfvwrSLFqzeu8FJ-7" value="Смена языка" style="ellipse;whiteSpace=wrap;html=1;" parent="WIyWlLk6GJQsqaUBKTNV-1" vertex="1">
          <mxGeometry x="-620" y="-919.5" width="120" height="51" as="geometry" />
        </mxCell>
        <mxCell id="y1xNDrfvwrSLFqzeu8FJ-8" value="Смена темы" style="ellipse;whiteSpace=wrap;html=1;" parent="WIyWlLk6GJQsqaUBKTNV-1" vertex="1">
          <mxGeometry x="-390" y="-780" width="120" height="51" as="geometry" />
        </mxCell>
        <mxCell id="y1xNDrfvwrSLFqzeu8FJ-12" value="Добавление книг" style="ellipse;whiteSpace=wrap;html=1;" parent="WIyWlLk6GJQsqaUBKTNV-1" vertex="1">
          <mxGeometry x="-200" y="-1109" width="120" height="51" as="geometry" />
        </mxCell>
        <mxCell id="y1xNDrfvwrSLFqzeu8FJ-13" value="Изменение книг" style="ellipse;whiteSpace=wrap;html=1;" parent="WIyWlLk6GJQsqaUBKTNV-1" vertex="1">
          <mxGeometry x="-230" y="-989" width="120" height="51" as="geometry" />
        </mxCell>
        <mxCell id="y1xNDrfvwrSLFqzeu8FJ-14" value="Изменение книг" style="ellipse;whiteSpace=wrap;html=1;" parent="WIyWlLk6GJQsqaUBKTNV-1" vertex="1">
          <mxGeometry x="-430" y="-1150" width="120" height="51" as="geometry" />
        </mxCell>
        <mxCell id="y1xNDrfvwrSLFqzeu8FJ-15" value="Удаление книг" style="ellipse;whiteSpace=wrap;html=1;" parent="WIyWlLk6GJQsqaUBKTNV-1" vertex="1">
          <mxGeometry x="-490" y="-1080" width="120" height="51" as="geometry" />
        </mxCell>
        <mxCell id="y1xNDrfvwrSLFqzeu8FJ-21" value="" style="endArrow=none;html=1;rounded=0;exitX=1;exitY=0.3333333333333333;exitDx=0;exitDy=0;exitPerimeter=0;entryX=0.222;entryY=0.08;entryDx=0;entryDy=0;entryPerimeter=0;" parent="WIyWlLk6GJQsqaUBKTNV-1" source="y1xNDrfvwrSLFqzeu8FJ-1" target="y1xNDrfvwrSLFqzeu8FJ-13" edge="1">
          <mxGeometry width="50" height="50" relative="1" as="geometry">
            <mxPoint x="-450" y="-702" as="sourcePoint" />
            <mxPoint x="-178.8589052057282" y="-1003.9294526028641" as="targetPoint" />
          </mxGeometry>
        </mxCell>
        <mxCell id="y1xNDrfvwrSLFqzeu8FJ-51" value="DbContext" style="swimlane;fontStyle=2;align=center;verticalAlign=top;childLayout=stackLayout;horizontal=1;startSize=26;horizontalStack=0;resizeParent=1;resizeLast=0;collapsible=1;marginBottom=0;rounded=0;shadow=0;strokeWidth=1;" parent="WIyWlLk6GJQsqaUBKTNV-1" vertex="1">
          <mxGeometry x="840" y="-1550" width="220" height="220" as="geometry">
            <mxRectangle x="230" y="140" width="160" height="26" as="alternateBounds" />
          </mxGeometry>
        </mxCell>
        <mxCell id="y1xNDrfvwrSLFqzeu8FJ-52" value="+context" style="text;align=left;verticalAlign=top;spacingLeft=4;spacingRight=4;overflow=hidden;rotatable=0;points=[[0,0.5],[1,0.5]];portConstraint=eastwest;" parent="y1xNDrfvwrSLFqzeu8FJ-51" vertex="1">
          <mxGeometry y="26" width="220" height="26" as="geometry" />
        </mxCell>
        <mxCell id="PphChhhejaA8l6Cy0F5s-1" value="+USER: DbSet&lt;USER&gt;" style="text;align=left;verticalAlign=top;spacingLeft=4;spacingRight=4;overflow=hidden;rotatable=0;points=[[0,0.5],[1,0.5]];portConstraint=eastwest;" parent="y1xNDrfvwrSLFqzeu8FJ-51" vertex="1">
          <mxGeometry y="52" width="220" height="26" as="geometry" />
        </mxCell>
        <mxCell id="PphChhhejaA8l6Cy0F5s-2" value="+SCHEDULE: DbSet&lt;SCHEDULE&gt;" style="text;align=left;verticalAlign=top;spacingLeft=4;spacingRight=4;overflow=hidden;rotatable=0;points=[[0,0.5],[1,0.5]];portConstraint=eastwest;" parent="y1xNDrfvwrSLFqzeu8FJ-51" vertex="1">
          <mxGeometry y="78" width="220" height="26" as="geometry" />
        </mxCell>
        <mxCell id="PphChhhejaA8l6Cy0F5s-3" value="+BOOK: DbSet&lt;BOOK&gt;" style="text;align=left;verticalAlign=top;spacingLeft=4;spacingRight=4;overflow=hidden;rotatable=0;points=[[0,0.5],[1,0.5]];portConstraint=eastwest;" parent="y1xNDrfvwrSLFqzeu8FJ-51" vertex="1">
          <mxGeometry y="104" width="220" height="26" as="geometry" />
        </mxCell>
        <mxCell id="PphChhhejaA8l6Cy0F5s-4" value="+ORDER: DbSet&lt;ORDER&gt;" style="text;align=left;verticalAlign=top;spacingLeft=4;spacingRight=4;overflow=hidden;rotatable=0;points=[[0,0.5],[1,0.5]];portConstraint=eastwest;" parent="y1xNDrfvwrSLFqzeu8FJ-51" vertex="1">
          <mxGeometry y="130" width="220" height="26" as="geometry" />
        </mxCell>
        <mxCell id="y1xNDrfvwrSLFqzeu8FJ-55" value="" style="line;html=1;strokeWidth=1;align=left;verticalAlign=middle;spacingTop=-1;spacingLeft=3;spacingRight=3;rotatable=0;labelPosition=right;points=[];portConstraint=eastwest;" parent="y1xNDrfvwrSLFqzeu8FJ-51" vertex="1">
          <mxGeometry y="156" width="220" height="10" as="geometry" />
        </mxCell>
        <mxCell id="y1xNDrfvwrSLFqzeu8FJ-56" value="#GetContext(): string" style="text;align=left;verticalAlign=top;spacingLeft=4;spacingRight=4;overflow=hidden;rotatable=0;points=[[0,0.5],[1,0.5]];portConstraint=eastwest;" parent="y1xNDrfvwrSLFqzeu8FJ-51" vertex="1">
          <mxGeometry y="166" width="220" height="24" as="geometry" />
        </mxCell>
        <mxCell id="PphChhhejaA8l6Cy0F5s-5" value="#OnModelCreating(): void" style="text;align=left;verticalAlign=top;spacingLeft=4;spacingRight=4;overflow=hidden;rotatable=0;points=[[0,0.5],[1,0.5]];portConstraint=eastwest;" parent="y1xNDrfvwrSLFqzeu8FJ-51" vertex="1">
          <mxGeometry y="190" width="220" height="30" as="geometry" />
        </mxCell>
        <mxCell id="rBupM4JsYxmbtJFYBT0S-0" value="SCHEDULE" style="swimlane;fontStyle=2;align=center;verticalAlign=top;childLayout=stackLayout;horizontal=1;startSize=26;horizontalStack=0;resizeParent=1;resizeLast=0;collapsible=1;marginBottom=0;rounded=0;shadow=0;strokeWidth=1;" parent="WIyWlLk6GJQsqaUBKTNV-1" vertex="1">
          <mxGeometry x="549" y="-1289" width="220" height="120" as="geometry">
            <mxRectangle x="230" y="140" width="160" height="26" as="alternateBounds" />
          </mxGeometry>
        </mxCell>
        <mxCell id="PphChhhejaA8l6Cy0F5s-40" value="+Id_schedule: int" style="text;align=left;verticalAlign=top;spacingLeft=4;spacingRight=4;overflow=hidden;rotatable=0;points=[[0,0.5],[1,0.5]];portConstraint=eastwest;" parent="rBupM4JsYxmbtJFYBT0S-0" vertex="1">
          <mxGeometry y="26" width="220" height="26" as="geometry" />
        </mxCell>
        <mxCell id="PphChhhejaA8l6Cy0F5s-43" value="+Books: List&lt;BOOK&gt;" style="text;align=left;verticalAlign=top;spacingLeft=4;spacingRight=4;overflow=hidden;rotatable=0;points=[[0,0.5],[1,0.5]];portConstraint=eastwest;" parent="rBupM4JsYxmbtJFYBT0S-0" vertex="1">
          <mxGeometry y="52" width="220" height="26" as="geometry" />
        </mxCell>
        <mxCell id="rBupM4JsYxmbtJFYBT0S-3" value="" style="line;html=1;strokeWidth=1;align=left;verticalAlign=middle;spacingTop=-1;spacingLeft=3;spacingRight=3;rotatable=0;labelPosition=right;points=[];portConstraint=eastwest;" parent="rBupM4JsYxmbtJFYBT0S-0" vertex="1">
          <mxGeometry y="78" width="220" height="10" as="geometry" />
        </mxCell>
        <mxCell id="PphChhhejaA8l6Cy0F5s-44" value="-ToString(): string" style="text;align=left;verticalAlign=top;spacingLeft=4;spacingRight=4;overflow=hidden;rotatable=0;points=[[0,0.5],[1,0.5]];portConstraint=eastwest;" parent="rBupM4JsYxmbtJFYBT0S-0" vertex="1">
          <mxGeometry y="88" width="220" height="20" as="geometry" />
        </mxCell>
        <mxCell id="rBupM4JsYxmbtJFYBT0S-10" value="ORDER" style="swimlane;fontStyle=2;align=center;verticalAlign=top;childLayout=stackLayout;horizontal=1;startSize=26;horizontalStack=0;resizeParent=1;resizeLast=0;collapsible=1;marginBottom=0;rounded=0;shadow=0;strokeWidth=1;" parent="WIyWlLk6GJQsqaUBKTNV-1" vertex="1">
          <mxGeometry x="1130" y="-1690" width="220" height="220" as="geometry">
            <mxRectangle x="230" y="140" width="160" height="26" as="alternateBounds" />
          </mxGeometry>
        </mxCell>
        <mxCell id="rBupM4JsYxmbtJFYBT0S-11" value="+Id_order: int" style="text;align=left;verticalAlign=top;spacingLeft=4;spacingRight=4;overflow=hidden;rotatable=0;points=[[0,0.5],[1,0.5]];portConstraint=eastwest;" parent="rBupM4JsYxmbtJFYBT0S-10" vertex="1">
          <mxGeometry y="26" width="220" height="26" as="geometry" />
        </mxCell>
        <mxCell id="PphChhhejaA8l6Cy0F5s-34" value="+Id_employee: int" style="text;align=left;verticalAlign=top;spacingLeft=4;spacingRight=4;overflow=hidden;rotatable=0;points=[[0,0.5],[1,0.5]];portConstraint=eastwest;" parent="rBupM4JsYxmbtJFYBT0S-10" vertex="1">
          <mxGeometry y="52" width="220" height="26" as="geometry" />
        </mxCell>
        <mxCell id="PphChhhejaA8l6Cy0F5s-37" value="+Id_book: int" style="text;align=left;verticalAlign=top;spacingLeft=4;spacingRight=4;overflow=hidden;rotatable=0;points=[[0,0.5],[1,0.5]];portConstraint=eastwest;" parent="rBupM4JsYxmbtJFYBT0S-10" vertex="1">
          <mxGeometry y="78" width="220" height="26" as="geometry" />
        </mxCell>
        <mxCell id="PphChhhejaA8l6Cy0F5s-36" value="+Users: List&lt;USER&gt;" style="text;align=left;verticalAlign=top;spacingLeft=4;spacingRight=4;overflow=hidden;rotatable=0;points=[[0,0.5],[1,0.5]];portConstraint=eastwest;" parent="rBupM4JsYxmbtJFYBT0S-10" vertex="1">
          <mxGeometry y="104" width="220" height="26" as="geometry" />
        </mxCell>
        <mxCell id="PphChhhejaA8l6Cy0F5s-38" value="+Count_of_seats: int" style="text;align=left;verticalAlign=top;spacingLeft=4;spacingRight=4;overflow=hidden;rotatable=0;points=[[0,0.5],[1,0.5]];portConstraint=eastwest;" parent="rBupM4JsYxmbtJFYBT0S-10" vertex="1">
          <mxGeometry y="130" width="220" height="26" as="geometry" />
        </mxCell>
        <mxCell id="PphChhhejaA8l6Cy0F5s-35" value="+Order_status: string" style="text;align=left;verticalAlign=top;spacingLeft=4;spacingRight=4;overflow=hidden;rotatable=0;points=[[0,0.5],[1,0.5]];portConstraint=eastwest;" parent="rBupM4JsYxmbtJFYBT0S-10" vertex="1">
          <mxGeometry y="156" width="220" height="26" as="geometry" />
        </mxCell>
        <mxCell id="rBupM4JsYxmbtJFYBT0S-13" value="" style="line;html=1;strokeWidth=1;align=left;verticalAlign=middle;spacingTop=-1;spacingLeft=3;spacingRight=3;rotatable=0;labelPosition=right;points=[];portConstraint=eastwest;" parent="rBupM4JsYxmbtJFYBT0S-10" vertex="1">
          <mxGeometry y="182" width="220" height="10" as="geometry" />
        </mxCell>
        <mxCell id="PphChhhejaA8l6Cy0F5s-39" value="-ToString(): string" style="text;align=left;verticalAlign=top;spacingLeft=4;spacingRight=4;overflow=hidden;rotatable=0;points=[[0,0.5],[1,0.5]];portConstraint=eastwest;" parent="rBupM4JsYxmbtJFYBT0S-10" vertex="1">
          <mxGeometry y="192" width="220" height="20" as="geometry" />
        </mxCell>
        <mxCell id="rBupM4JsYxmbtJFYBT0S-20" value="USER" style="swimlane;fontStyle=2;align=center;verticalAlign=top;childLayout=stackLayout;horizontal=1;startSize=26;horizontalStack=0;resizeParent=1;resizeLast=0;collapsible=1;marginBottom=0;rounded=0;shadow=0;strokeWidth=1;" parent="WIyWlLk6GJQsqaUBKTNV-1" vertex="1">
          <mxGeometry x="1130" y="-1449" width="220" height="280" as="geometry">
            <mxRectangle x="230" y="140" width="160" height="26" as="alternateBounds" />
          </mxGeometry>
        </mxCell>
        <mxCell id="rBupM4JsYxmbtJFYBT0S-21" value="+Id_user: int" style="text;align=left;verticalAlign=top;spacingLeft=4;spacingRight=4;overflow=hidden;rotatable=0;points=[[0,0.5],[1,0.5]];portConstraint=eastwest;" parent="rBupM4JsYxmbtJFYBT0S-20" vertex="1">
          <mxGeometry y="26" width="220" height="26" as="geometry" />
        </mxCell>
        <mxCell id="PphChhhejaA8l6Cy0F5s-12" value="+Fio: string" style="text;align=left;verticalAlign=top;spacingLeft=4;spacingRight=4;overflow=hidden;rotatable=0;points=[[0,0.5],[1,0.5]];portConstraint=eastwest;" parent="rBupM4JsYxmbtJFYBT0S-20" vertex="1">
          <mxGeometry y="52" width="220" height="26" as="geometry" />
        </mxCell>
        <mxCell id="PphChhhejaA8l6Cy0F5s-11" value="+Login: string" style="text;align=left;verticalAlign=top;spacingLeft=4;spacingRight=4;overflow=hidden;rotatable=0;points=[[0,0.5],[1,0.5]];portConstraint=eastwest;" parent="rBupM4JsYxmbtJFYBT0S-20" vertex="1">
          <mxGeometry y="78" width="220" height="26" as="geometry" />
        </mxCell>
        <mxCell id="PphChhhejaA8l6Cy0F5s-13" value="+Password: string" style="text;align=left;verticalAlign=top;spacingLeft=4;spacingRight=4;overflow=hidden;rotatable=0;points=[[0,0.5],[1,0.5]];portConstraint=eastwest;" parent="rBupM4JsYxmbtJFYBT0S-20" vertex="1">
          <mxGeometry y="104" width="220" height="26" as="geometry" />
        </mxCell>
        <mxCell id="PphChhhejaA8l6Cy0F5s-15" value="+Emal: string" style="text;align=left;verticalAlign=top;spacingLeft=4;spacingRight=4;overflow=hidden;rotatable=0;points=[[0,0.5],[1,0.5]];portConstraint=eastwest;" parent="rBupM4JsYxmbtJFYBT0S-20" vertex="1">
          <mxGeometry y="130" width="220" height="26" as="geometry" />
        </mxCell>
        <mxCell id="PphChhhejaA8l6Cy0F5s-14" value="+Phone: string" style="text;align=left;verticalAlign=top;spacingLeft=4;spacingRight=4;overflow=hidden;rotatable=0;points=[[0,0.5],[1,0.5]];portConstraint=eastwest;" parent="rBupM4JsYxmbtJFYBT0S-20" vertex="1">
          <mxGeometry y="156" width="220" height="26" as="geometry" />
        </mxCell>
        <mxCell id="PphChhhejaA8l6Cy0F5s-16" value="+Role: string" style="text;align=left;verticalAlign=top;spacingLeft=4;spacingRight=4;overflow=hidden;rotatable=0;points=[[0,0.5],[1,0.5]];portConstraint=eastwest;" parent="rBupM4JsYxmbtJFYBT0S-20" vertex="1">
          <mxGeometry y="182" width="220" height="26" as="geometry" />
        </mxCell>
        <mxCell id="PphChhhejaA8l6Cy0F5s-10" value="+Orders: List&lt;ORDER&gt;" style="text;align=left;verticalAlign=top;spacingLeft=4;spacingRight=4;overflow=hidden;rotatable=0;points=[[0,0.5],[1,0.5]];portConstraint=eastwest;" parent="rBupM4JsYxmbtJFYBT0S-20" vertex="1">
          <mxGeometry y="208" width="220" height="26" as="geometry" />
        </mxCell>
        <mxCell id="rBupM4JsYxmbtJFYBT0S-23" value="" style="line;html=1;strokeWidth=1;align=left;verticalAlign=middle;spacingTop=-1;spacingLeft=3;spacingRight=3;rotatable=0;labelPosition=right;points=[];portConstraint=eastwest;" parent="rBupM4JsYxmbtJFYBT0S-20" vertex="1">
          <mxGeometry y="234" width="220" height="10" as="geometry" />
        </mxCell>
        <mxCell id="PphChhhejaA8l6Cy0F5s-31" value="-ToString(): string" style="text;align=left;verticalAlign=top;spacingLeft=4;spacingRight=4;overflow=hidden;rotatable=0;points=[[0,0.5],[1,0.5]];portConstraint=eastwest;" parent="rBupM4JsYxmbtJFYBT0S-20" vertex="1">
          <mxGeometry y="244" width="220" height="26" as="geometry" />
        </mxCell>
        <mxCell id="rBupM4JsYxmbtJFYBT0S-25" value="BOOK" style="swimlane;fontStyle=2;align=center;verticalAlign=top;childLayout=stackLayout;horizontal=1;startSize=26;horizontalStack=0;resizeParent=1;resizeLast=0;collapsible=1;marginBottom=0;rounded=0;shadow=0;strokeWidth=1;" parent="WIyWlLk6GJQsqaUBKTNV-1" vertex="1">
          <mxGeometry x="549" y="-1690" width="220" height="220" as="geometry">
            <mxRectangle x="230" y="140" width="160" height="26" as="alternateBounds" />
          </mxGeometry>
        </mxCell>
        <mxCell id="PphChhhejaA8l6Cy0F5s-17" value="+Id_book: int" style="text;align=left;verticalAlign=top;spacingLeft=4;spacingRight=4;overflow=hidden;rotatable=0;points=[[0,0.5],[1,0.5]];portConstraint=eastwest;" parent="rBupM4JsYxmbtJFYBT0S-25" vertex="1">
          <mxGeometry y="26" width="220" height="26" as="geometry" />
        </mxCell>
        <mxCell id="PphChhhejaA8l6Cy0F5s-21" value="+Title: string" style="text;align=left;verticalAlign=top;spacingLeft=4;spacingRight=4;overflow=hidden;rotatable=0;points=[[0,0.5],[1,0.5]];portConstraint=eastwest;" parent="rBupM4JsYxmbtJFYBT0S-25" vertex="1">
          <mxGeometry y="52" width="220" height="26" as="geometry" />
        </mxCell>
        <mxCell id="PphChhhejaA8l6Cy0F5s-20" value="+Country: string" style="text;align=left;verticalAlign=top;spacingLeft=4;spacingRight=4;overflow=hidden;rotatable=0;points=[[0,0.5],[1,0.5]];portConstraint=eastwest;" parent="rBupM4JsYxmbtJFYBT0S-25" vertex="1">
          <mxGeometry y="78" width="220" height="26" as="geometry" />
        </mxCell>
        <mxCell id="PphChhhejaA8l6Cy0F5s-19" value="+Price: int" style="text;align=left;verticalAlign=top;spacingLeft=4;spacingRight=4;overflow=hidden;rotatable=0;points=[[0,0.5],[1,0.5]];portConstraint=eastwest;" parent="rBupM4JsYxmbtJFYBT0S-25" vertex="1">
          <mxGeometry y="104" width="220" height="26" as="geometry" />
        </mxCell>
        <mxCell id="PphChhhejaA8l6Cy0F5s-29" value="+Rating: float" style="text;align=left;verticalAlign=top;spacingLeft=4;spacingRight=4;overflow=hidden;rotatable=0;points=[[0,0.5],[1,0.5]];portConstraint=eastwest;" parent="rBupM4JsYxmbtJFYBT0S-25" vertex="1">
          <mxGeometry y="130" width="220" height="26" as="geometry" />
        </mxCell>
        <mxCell id="PphChhhejaA8l6Cy0F5s-33" value="+Schedule: List&lt;SCHEDULE&gt;" style="text;align=left;verticalAlign=top;spacingLeft=4;spacingRight=4;overflow=hidden;rotatable=0;points=[[0,0.5],[1,0.5]];portConstraint=eastwest;" parent="rBupM4JsYxmbtJFYBT0S-25" vertex="1">
          <mxGeometry y="156" width="220" height="26" as="geometry" />
        </mxCell>
        <mxCell id="rBupM4JsYxmbtJFYBT0S-28" value="" style="line;html=1;strokeWidth=1;align=left;verticalAlign=middle;spacingTop=-1;spacingLeft=3;spacingRight=3;rotatable=0;labelPosition=right;points=[];portConstraint=eastwest;" parent="rBupM4JsYxmbtJFYBT0S-25" vertex="1">
          <mxGeometry y="182" width="220" height="10" as="geometry" />
        </mxCell>
        <mxCell id="rBupM4JsYxmbtJFYBT0S-29" value="-ToString(): string" style="text;align=left;verticalAlign=top;spacingLeft=4;spacingRight=4;overflow=hidden;rotatable=0;points=[[0,0.5],[1,0.5]];portConstraint=eastwest;" parent="rBupM4JsYxmbtJFYBT0S-25" vertex="1">
          <mxGeometry y="192" width="220" height="20" as="geometry" />
        </mxCell>
        <mxCell id="PphChhhejaA8l6Cy0F5s-45" value="" style="endArrow=diamondThin;endFill=0;endSize=24;html=1;rounded=0;entryX=-0.017;entryY=0.854;entryDx=0;entryDy=0;entryPerimeter=0;exitX=1;exitY=0.5;exitDx=0;exitDy=0;" parent="WIyWlLk6GJQsqaUBKTNV-1" source="PphChhhejaA8l6Cy0F5s-43" target="PphChhhejaA8l6Cy0F5s-3" edge="1">
          <mxGeometry width="160" relative="1" as="geometry">
            <mxPoint x="780" y="-1229.5" as="sourcePoint" />
            <mxPoint x="940" y="-1229.5" as="targetPoint" />
            <Array as="points">
              <mxPoint x="800" y="-1224" />
              <mxPoint x="800" y="-1424" />
            </Array>
          </mxGeometry>
        </mxCell>
        <mxCell id="PphChhhejaA8l6Cy0F5s-48" value="" style="endArrow=diamondThin;endFill=0;endSize=24;html=1;rounded=0;entryX=1;entryY=0.5;entryDx=0;entryDy=0;exitX=0;exitY=0.5;exitDx=0;exitDy=0;" parent="WIyWlLk6GJQsqaUBKTNV-1" source="PphChhhejaA8l6Cy0F5s-36" target="PphChhhejaA8l6Cy0F5s-2" edge="1">
          <mxGeometry width="160" relative="1" as="geometry">
            <mxPoint x="940" y="-1430" as="sourcePoint" />
            <mxPoint x="1100" y="-1430" as="targetPoint" />
            <Array as="points">
              <mxPoint x="1100" y="-1573" />
              <mxPoint x="1100" y="-1460" />
            </Array>
          </mxGeometry>
        </mxCell>
        <mxCell id="PphChhhejaA8l6Cy0F5s-49" value="" style="endArrow=diamondThin;endFill=0;endSize=24;html=1;rounded=0;entryX=1.001;entryY=0.792;entryDx=0;entryDy=0;exitX=0;exitY=0.5;exitDx=0;exitDy=0;entryPerimeter=0;" parent="WIyWlLk6GJQsqaUBKTNV-1" source="PphChhhejaA8l6Cy0F5s-15" target="PphChhhejaA8l6Cy0F5s-3" edge="1">
          <mxGeometry width="160" relative="1" as="geometry">
            <mxPoint x="1140" y="-1563" as="sourcePoint" />
            <mxPoint x="1070" y="-1449" as="targetPoint" />
            <Array as="points">
              <mxPoint x="1100" y="-1306" />
              <mxPoint x="1100" y="-1425" />
            </Array>
          </mxGeometry>
        </mxCell>
        <mxCell id="PphChhhejaA8l6Cy0F5s-50" value="" style="endArrow=diamondThin;endFill=0;endSize=24;html=1;rounded=0;" parent="WIyWlLk6GJQsqaUBKTNV-1" source="PphChhhejaA8l6Cy0F5s-19" target="PphChhhejaA8l6Cy0F5s-2" edge="1">
          <mxGeometry width="160" relative="1" as="geometry">
            <mxPoint x="1150" y="-1553" as="sourcePoint" />
            <mxPoint x="1080" y="-1439" as="targetPoint" />
            <Array as="points">
              <mxPoint x="800" y="-1570" />
              <mxPoint x="800" y="-1460" />
            </Array>
          </mxGeometry>
        </mxCell>
        <mxCell id="PphChhhejaA8l6Cy0F5s-53" value="Пользователь&lt;br&gt;" style="text;html=1;align=center;verticalAlign=middle;resizable=0;points=[];autosize=1;strokeColor=none;fillColor=none;" parent="WIyWlLk6GJQsqaUBKTNV-1" vertex="1">
          <mxGeometry x="230" y="-995" width="100" height="30" as="geometry" />
        </mxCell>
        <mxCell id="PphChhhejaA8l6Cy0F5s-60" value="" style="html=1;verticalAlign=bottom;startArrow=oval;startFill=1;endArrow=block;startSize=8;edgeStyle=elbowEdgeStyle;elbow=vertical;curved=0;rounded=0;" parent="WIyWlLk6GJQsqaUBKTNV-1" source="PphChhhejaA8l6Cy0F5s-53" edge="1">
          <mxGeometry x="-1" y="-133" width="60" relative="1" as="geometry">
            <mxPoint x="220" y="-919.5" as="sourcePoint" />
            <mxPoint x="280" y="-919.5" as="targetPoint" />
            <mxPoint x="-130" y="-163" as="offset" />
          </mxGeometry>
        </mxCell>
        <mxCell id="PphChhhejaA8l6Cy0F5s-67" style="edgeStyle=orthogonalEdgeStyle;rounded=0;orthogonalLoop=1;jettySize=auto;html=1;entryX=0.5;entryY=0;entryDx=0;entryDy=0;" parent="WIyWlLk6GJQsqaUBKTNV-1" source="PphChhhejaA8l6Cy0F5s-61" target="PphChhhejaA8l6Cy0F5s-64" edge="1">
          <mxGeometry relative="1" as="geometry" />
        </mxCell>
        <mxCell id="PphChhhejaA8l6Cy0F5s-61" value="Авторизация" style="html=1;whiteSpace=wrap;" parent="WIyWlLk6GJQsqaUBKTNV-1" vertex="1">
          <mxGeometry x="225" y="-918.5" width="110" height="38.5" as="geometry" />
        </mxCell>
        <mxCell id="PphChhhejaA8l6Cy0F5s-72" style="edgeStyle=orthogonalEdgeStyle;rounded=0;orthogonalLoop=1;jettySize=auto;html=1;entryX=0.5;entryY=0;entryDx=0;entryDy=0;" parent="WIyWlLk6GJQsqaUBKTNV-1" source="PphChhhejaA8l6Cy0F5s-64" target="PphChhhejaA8l6Cy0F5s-69" edge="1">
          <mxGeometry relative="1" as="geometry" />
        </mxCell>
        <mxCell id="PphChhhejaA8l6Cy0F5s-73" style="edgeStyle=orthogonalEdgeStyle;rounded=0;orthogonalLoop=1;jettySize=auto;html=1;" parent="WIyWlLk6GJQsqaUBKTNV-1" source="PphChhhejaA8l6Cy0F5s-64" target="PphChhhejaA8l6Cy0F5s-70" edge="1">
          <mxGeometry relative="1" as="geometry" />
        </mxCell>
        <mxCell id="PphChhhejaA8l6Cy0F5s-64" value="Пользователь зарегистрирован" style="rhombus;whiteSpace=wrap;html=1;" parent="WIyWlLk6GJQsqaUBKTNV-1" vertex="1">
          <mxGeometry x="202.5" y="-860" width="155" height="80" as="geometry" />
        </mxCell>
        <mxCell id="PphChhhejaA8l6Cy0F5s-76" style="edgeStyle=orthogonalEdgeStyle;rounded=0;orthogonalLoop=1;jettySize=auto;html=1;entryX=0.5;entryY=0;entryDx=0;entryDy=0;" parent="WIyWlLk6GJQsqaUBKTNV-1" source="PphChhhejaA8l6Cy0F5s-69" target="PphChhhejaA8l6Cy0F5s-71" edge="1">
          <mxGeometry relative="1" as="geometry" />
        </mxCell>
        <mxCell id="PphChhhejaA8l6Cy0F5s-69" value="Просмотр книг" style="rounded=0;whiteSpace=wrap;html=1;" parent="WIyWlLk6GJQsqaUBKTNV-1" vertex="1">
          <mxGeometry x="70" y="-761" width="120" height="60" as="geometry" />
        </mxCell>
        <mxCell id="PphChhhejaA8l6Cy0F5s-75" style="edgeStyle=orthogonalEdgeStyle;rounded=0;orthogonalLoop=1;jettySize=auto;html=1;entryX=1;entryY=0.5;entryDx=0;entryDy=0;" parent="WIyWlLk6GJQsqaUBKTNV-1" source="PphChhhejaA8l6Cy0F5s-70" target="PphChhhejaA8l6Cy0F5s-69" edge="1">
          <mxGeometry relative="1" as="geometry" />
        </mxCell>
        <mxCell id="PphChhhejaA8l6Cy0F5s-70" value="Регистрация пользователя" style="rounded=0;whiteSpace=wrap;html=1;" parent="WIyWlLk6GJQsqaUBKTNV-1" vertex="1">
          <mxGeometry x="370" y="-761" width="120" height="60" as="geometry" />
        </mxCell>
        <mxCell id="PphChhhejaA8l6Cy0F5s-79" style="edgeStyle=orthogonalEdgeStyle;rounded=0;orthogonalLoop=1;jettySize=auto;html=1;entryX=0.5;entryY=0;entryDx=0;entryDy=0;" parent="WIyWlLk6GJQsqaUBKTNV-1" source="PphChhhejaA8l6Cy0F5s-71" target="PphChhhejaA8l6Cy0F5s-77" edge="1">
          <mxGeometry relative="1" as="geometry" />
        </mxCell>
        <mxCell id="PphChhhejaA8l6Cy0F5s-71" value="Выбор книги" style="rounded=0;whiteSpace=wrap;html=1;" parent="WIyWlLk6GJQsqaUBKTNV-1" vertex="1">
          <mxGeometry x="70" y="-650" width="120" height="60" as="geometry" />
        </mxCell>
        <mxCell id="PphChhhejaA8l6Cy0F5s-80" style="edgeStyle=orthogonalEdgeStyle;rounded=0;orthogonalLoop=1;jettySize=auto;html=1;entryX=0.5;entryY=0;entryDx=0;entryDy=0;" parent="WIyWlLk6GJQsqaUBKTNV-1" source="PphChhhejaA8l6Cy0F5s-77" target="PphChhhejaA8l6Cy0F5s-78" edge="1">
          <mxGeometry relative="1" as="geometry" />
        </mxCell>
        <mxCell id="PphChhhejaA8l6Cy0F5s-77" value="Оформление книги" style="rounded=0;whiteSpace=wrap;html=1;" parent="WIyWlLk6GJQsqaUBKTNV-1" vertex="1">
          <mxGeometry x="70" y="-540" width="120" height="60" as="geometry" />
        </mxCell>
        <mxCell id="PphChhhejaA8l6Cy0F5s-78" value="Оценка книги" style="rounded=0;whiteSpace=wrap;html=1;" parent="WIyWlLk6GJQsqaUBKTNV-1" vertex="1">
          <mxGeometry x="70" y="-430" width="120" height="60" as="geometry" />
        </mxCell>
        <mxCell id="PphChhhejaA8l6Cy0F5s-82" value="Новый пользователь" style="shape=umlActor;verticalLabelPosition=bottom;verticalAlign=top;html=1;outlineConnect=0;" parent="WIyWlLk6GJQsqaUBKTNV-1" vertex="1">
          <mxGeometry x="870" y="-940" width="30" height="60" as="geometry" />
        </mxCell>
        <mxCell id="PphChhhejaA8l6Cy0F5s-83" value="Окно регистрации" style="rounded=1;whiteSpace=wrap;html=1;" parent="WIyWlLk6GJQsqaUBKTNV-1" vertex="1">
          <mxGeometry x="990" y="-918.5" width="120" height="38.5" as="geometry" />
        </mxCell>
        <mxCell id="PphChhhejaA8l6Cy0F5s-84" value="Валидация данных" style="rounded=1;whiteSpace=wrap;html=1;" parent="WIyWlLk6GJQsqaUBKTNV-1" vertex="1">
          <mxGeometry x="1170" y="-918.5" width="120" height="38.5" as="geometry" />
        </mxCell>
        <mxCell id="PphChhhejaA8l6Cy0F5s-85" value="База данных" style="rounded=1;whiteSpace=wrap;html=1;" parent="WIyWlLk6GJQsqaUBKTNV-1" vertex="1">
          <mxGeometry x="1350" y="-918.5" width="120" height="38.5" as="geometry" />
        </mxCell>
        <mxCell id="PphChhhejaA8l6Cy0F5s-86" value="Сообщение" style="rounded=1;whiteSpace=wrap;html=1;" parent="WIyWlLk6GJQsqaUBKTNV-1" vertex="1">
          <mxGeometry x="1534" y="-918.5" width="120" height="38.5" as="geometry" />
        </mxCell>
        <mxCell id="PphChhhejaA8l6Cy0F5s-89" value="" style="endArrow=none;dashed=1;html=1;rounded=0;" parent="WIyWlLk6GJQsqaUBKTNV-1" edge="1">
          <mxGeometry width="50" height="50" relative="1" as="geometry">
            <mxPoint x="884.47" y="-520" as="sourcePoint" />
            <mxPoint x="884.47" y="-840" as="targetPoint" />
          </mxGeometry>
        </mxCell>
        <mxCell id="PphChhhejaA8l6Cy0F5s-92" value="" style="endArrow=none;dashed=1;html=1;rounded=0;" parent="WIyWlLk6GJQsqaUBKTNV-1" source="PphChhhejaA8l6Cy0F5s-96" edge="1">
          <mxGeometry width="50" height="50" relative="1" as="geometry">
            <mxPoint x="1049.47" y="-520" as="sourcePoint" />
            <mxPoint x="1049.47" y="-840" as="targetPoint" />
          </mxGeometry>
        </mxCell>
        <mxCell id="PphChhhejaA8l6Cy0F5s-93" value="" style="endArrow=none;dashed=1;html=1;rounded=0;" parent="WIyWlLk6GJQsqaUBKTNV-1" source="PphChhhejaA8l6Cy0F5s-98" edge="1">
          <mxGeometry width="50" height="50" relative="1" as="geometry">
            <mxPoint x="1229.47" y="-520" as="sourcePoint" />
            <mxPoint x="1229.47" y="-840" as="targetPoint" />
          </mxGeometry>
        </mxCell>
        <mxCell id="PphChhhejaA8l6Cy0F5s-94" value="" style="endArrow=none;dashed=1;html=1;rounded=0;" parent="WIyWlLk6GJQsqaUBKTNV-1" edge="1">
          <mxGeometry width="50" height="50" relative="1" as="geometry">
            <mxPoint x="1409.47" y="-520" as="sourcePoint" />
            <mxPoint x="1409.47" y="-840" as="targetPoint" />
          </mxGeometry>
        </mxCell>
        <mxCell id="PphChhhejaA8l6Cy0F5s-95" value="" style="endArrow=none;dashed=1;html=1;rounded=0;" parent="WIyWlLk6GJQsqaUBKTNV-1" source="PphChhhejaA8l6Cy0F5s-101" edge="1">
          <mxGeometry width="50" height="50" relative="1" as="geometry">
            <mxPoint x="1593.47" y="-520" as="sourcePoint" />
            <mxPoint x="1593.47" y="-840" as="targetPoint" />
          </mxGeometry>
        </mxCell>
        <mxCell id="PphChhhejaA8l6Cy0F5s-97" value="" style="endArrow=none;dashed=1;html=1;rounded=0;" parent="WIyWlLk6GJQsqaUBKTNV-1" target="PphChhhejaA8l6Cy0F5s-96" edge="1">
          <mxGeometry width="50" height="50" relative="1" as="geometry">
            <mxPoint x="1049.47" y="-520" as="sourcePoint" />
            <mxPoint x="1049.47" y="-840" as="targetPoint" />
          </mxGeometry>
        </mxCell>
        <mxCell id="PphChhhejaA8l6Cy0F5s-96" value="" style="rounded=1;whiteSpace=wrap;html=1;" parent="WIyWlLk6GJQsqaUBKTNV-1" vertex="1">
          <mxGeometry x="1045" y="-821" width="10" height="271" as="geometry" />
        </mxCell>
        <mxCell id="PphChhhejaA8l6Cy0F5s-99" value="" style="endArrow=none;dashed=1;html=1;rounded=0;" parent="WIyWlLk6GJQsqaUBKTNV-1" target="PphChhhejaA8l6Cy0F5s-98" edge="1">
          <mxGeometry width="50" height="50" relative="1" as="geometry">
            <mxPoint x="1229.47" y="-520" as="sourcePoint" />
            <mxPoint x="1229.47" y="-840" as="targetPoint" />
          </mxGeometry>
        </mxCell>
        <mxCell id="PphChhhejaA8l6Cy0F5s-98" value="" style="rounded=1;whiteSpace=wrap;html=1;" parent="WIyWlLk6GJQsqaUBKTNV-1" vertex="1">
          <mxGeometry x="1225" y="-821" width="10" height="271" as="geometry" />
        </mxCell>
        <mxCell id="PphChhhejaA8l6Cy0F5s-100" value="" style="rounded=1;whiteSpace=wrap;html=1;" parent="WIyWlLk6GJQsqaUBKTNV-1" vertex="1">
          <mxGeometry x="1405" y="-729" width="10" height="109" as="geometry" />
        </mxCell>
        <mxCell id="PphChhhejaA8l6Cy0F5s-102" value="" style="endArrow=none;dashed=1;html=1;rounded=0;" parent="WIyWlLk6GJQsqaUBKTNV-1" target="PphChhhejaA8l6Cy0F5s-101" edge="1">
          <mxGeometry width="50" height="50" relative="1" as="geometry">
            <mxPoint x="1593.47" y="-520" as="sourcePoint" />
            <mxPoint x="1593.47" y="-840" as="targetPoint" />
          </mxGeometry>
        </mxCell>
        <mxCell id="PphChhhejaA8l6Cy0F5s-101" value="" style="rounded=1;whiteSpace=wrap;html=1;" parent="WIyWlLk6GJQsqaUBKTNV-1" vertex="1">
          <mxGeometry x="1589" y="-601" width="10" height="51" as="geometry" />
        </mxCell>
        <mxCell id="PphChhhejaA8l6Cy0F5s-103" value="" style="endArrow=classic;html=1;rounded=0;" parent="WIyWlLk6GJQsqaUBKTNV-1" edge="1">
          <mxGeometry width="50" height="50" relative="1" as="geometry">
            <mxPoint x="890" y="-790" as="sourcePoint" />
            <mxPoint x="1040" y="-790" as="targetPoint" />
          </mxGeometry>
        </mxCell>
        <mxCell id="PphChhhejaA8l6Cy0F5s-104" value="" style="endArrow=classic;html=1;rounded=0;" parent="WIyWlLk6GJQsqaUBKTNV-1" edge="1">
          <mxGeometry width="50" height="50" relative="1" as="geometry">
            <mxPoint x="1060" y="-760" as="sourcePoint" />
            <mxPoint x="1220" y="-760" as="targetPoint" />
          </mxGeometry>
        </mxCell>
        <mxCell id="PphChhhejaA8l6Cy0F5s-105" value="" style="endArrow=classic;html=1;rounded=0;entryX=-0.009;entryY=0.803;entryDx=0;entryDy=0;entryPerimeter=0;" parent="WIyWlLk6GJQsqaUBKTNV-1" target="PphChhhejaA8l6Cy0F5s-101" edge="1">
          <mxGeometry width="50" height="50" relative="1" as="geometry">
            <mxPoint x="1240" y="-560" as="sourcePoint" />
            <mxPoint x="1580" y="-560" as="targetPoint" />
          </mxGeometry>
        </mxCell>
        <mxCell id="PphChhhejaA8l6Cy0F5s-106" value="" style="endArrow=classic;html=1;rounded=0;" parent="WIyWlLk6GJQsqaUBKTNV-1" edge="1">
          <mxGeometry width="50" height="50" relative="1" as="geometry">
            <mxPoint x="1241" y="-655" as="sourcePoint" />
            <mxPoint x="1401" y="-655" as="targetPoint" />
          </mxGeometry>
        </mxCell>
        <mxCell id="PphChhhejaA8l6Cy0F5s-107" value="" style="endArrow=classic;html=1;rounded=0;" parent="WIyWlLk6GJQsqaUBKTNV-1" edge="1">
          <mxGeometry width="50" height="50" relative="1" as="geometry">
            <mxPoint x="1400.5" y="-630" as="sourcePoint" />
            <mxPoint x="1240.5" y="-630" as="targetPoint" />
          </mxGeometry>
        </mxCell>
        <mxCell id="PphChhhejaA8l6Cy0F5s-108" value="" style="endArrow=classic;html=1;rounded=0;" parent="WIyWlLk6GJQsqaUBKTNV-1" edge="1">
          <mxGeometry width="50" height="50" relative="1" as="geometry">
            <mxPoint x="1241" y="-740" as="sourcePoint" />
            <mxPoint x="1241" y="-720" as="targetPoint" />
            <Array as="points">
              <mxPoint x="1271" y="-740" />
              <mxPoint x="1271" y="-720" />
            </Array>
          </mxGeometry>
        </mxCell>
        <mxCell id="PphChhhejaA8l6Cy0F5s-110" value="" style="endArrow=classic;html=1;rounded=0;" parent="WIyWlLk6GJQsqaUBKTNV-1" edge="1">
          <mxGeometry width="50" height="50" relative="1" as="geometry">
            <mxPoint x="1240" y="-700.5" as="sourcePoint" />
            <mxPoint x="1240" y="-680.5" as="targetPoint" />
            <Array as="points">
              <mxPoint x="1290" y="-700.5" />
              <mxPoint x="1290" y="-680.5" />
            </Array>
          </mxGeometry>
        </mxCell>
        <mxCell id="PphChhhejaA8l6Cy0F5s-111" value="Ввод логина и &lt;br&gt;пароля" style="text;html=1;align=center;verticalAlign=middle;resizable=0;points=[];autosize=1;strokeColor=none;fillColor=none;" parent="WIyWlLk6GJQsqaUBKTNV-1" vertex="1">
          <mxGeometry x="910" y="-828" width="100" height="40" as="geometry" />
        </mxCell>
        <mxCell id="PphChhhejaA8l6Cy0F5s-112" value="Отправка данных" style="text;html=1;align=center;verticalAlign=middle;resizable=0;points=[];autosize=1;strokeColor=none;fillColor=none;" parent="WIyWlLk6GJQsqaUBKTNV-1" vertex="1">
          <mxGeometry x="1080" y="-786" width="120" height="30" as="geometry" />
        </mxCell>
        <mxCell id="PphChhhejaA8l6Cy0F5s-113" value="Валидация данных" style="text;html=1;align=center;verticalAlign=middle;resizable=0;points=[];autosize=1;strokeColor=none;fillColor=none;" parent="WIyWlLk6GJQsqaUBKTNV-1" vertex="1">
          <mxGeometry x="1270" y="-745" width="130" height="30" as="geometry" />
        </mxCell>
        <mxCell id="PphChhhejaA8l6Cy0F5s-114" value="Проверка кода" style="text;html=1;align=center;verticalAlign=middle;resizable=0;points=[];autosize=1;strokeColor=none;fillColor=none;" parent="WIyWlLk6GJQsqaUBKTNV-1" vertex="1">
          <mxGeometry x="1286" y="-705.5" width="110" height="30" as="geometry" />
        </mxCell>
        <mxCell id="PphChhhejaA8l6Cy0F5s-115" value="Запрос на добавление" style="text;html=1;align=center;verticalAlign=middle;resizable=0;points=[];autosize=1;strokeColor=none;fillColor=none;" parent="WIyWlLk6GJQsqaUBKTNV-1" vertex="1">
          <mxGeometry x="1240" y="-680" width="150" height="30" as="geometry" />
        </mxCell>
        <mxCell id="PphChhhejaA8l6Cy0F5s-116" value="Ответ базы данных" style="text;html=1;align=center;verticalAlign=middle;resizable=0;points=[];autosize=1;strokeColor=none;fillColor=none;" parent="WIyWlLk6GJQsqaUBKTNV-1" vertex="1">
          <mxGeometry x="1258" y="-655" width="130" height="30" as="geometry" />
        </mxCell>
        <mxCell id="PphChhhejaA8l6Cy0F5s-117" value="Вывод сообщения об успехе" style="text;html=1;align=center;verticalAlign=middle;resizable=0;points=[];autosize=1;strokeColor=none;fillColor=none;" parent="WIyWlLk6GJQsqaUBKTNV-1" vertex="1">
          <mxGeometry x="1320" y="-584" width="180" height="30" as="geometry" />
        </mxCell>
        <mxCell id="OdaUmTdrzh-iGibFLw8H-0" value="Контроль книг" style="ellipse;whiteSpace=wrap;html=1;" parent="WIyWlLk6GJQsqaUBKTNV-1" vertex="1">
          <mxGeometry x="-150" y="-1040" width="120" height="51" as="geometry" />
        </mxCell>
        <mxCell id="OdaUmTdrzh-iGibFLw8H-1" value="" style="endArrow=classic;html=1;rounded=0;entryX=0;entryY=0.5;entryDx=0;entryDy=0;exitX=0.75;exitY=0.1;exitDx=0;exitDy=0;exitPerimeter=0;" parent="WIyWlLk6GJQsqaUBKTNV-1" source="y1xNDrfvwrSLFqzeu8FJ-1" target="OdaUmTdrzh-iGibFLw8H-0" edge="1">
          <mxGeometry width="50" height="50" relative="1" as="geometry">
            <mxPoint x="-200" y="-960" as="sourcePoint" />
            <mxPoint x="-150" y="-1010" as="targetPoint" />
          </mxGeometry>
        </mxCell>
        <mxCell id="OdaUmTdrzh-iGibFLw8H-3" value="" style="endArrow=classic;html=1;rounded=0;exitX=0.75;exitY=0.1;exitDx=0;exitDy=0;exitPerimeter=0;" parent="WIyWlLk6GJQsqaUBKTNV-1" source="y1xNDrfvwrSLFqzeu8FJ-1" target="y1xNDrfvwrSLFqzeu8FJ-12" edge="1">
          <mxGeometry width="50" height="50" relative="1" as="geometry">
            <mxPoint x="-267" y="-1054" as="sourcePoint" />
            <mxPoint x="-140" y="-1004" as="targetPoint" />
          </mxGeometry>
        </mxCell>
        <mxCell id="OdaUmTdrzh-iGibFLw8H-4" value="" style="endArrow=classic;html=1;rounded=0;exitX=0.5;exitY=0;exitDx=0;exitDy=0;exitPerimeter=0;entryX=0.766;entryY=0.98;entryDx=0;entryDy=0;entryPerimeter=0;" parent="WIyWlLk6GJQsqaUBKTNV-1" source="y1xNDrfvwrSLFqzeu8FJ-1" target="y1xNDrfvwrSLFqzeu8FJ-14" edge="1">
          <mxGeometry width="50" height="50" relative="1" as="geometry">
            <mxPoint x="-267" y="-1054" as="sourcePoint" />
            <mxPoint x="-187" y="-1065" as="targetPoint" />
          </mxGeometry>
        </mxCell>
        <mxCell id="OdaUmTdrzh-iGibFLw8H-5" value="" style="endArrow=classic;html=1;rounded=0;exitX=0.25;exitY=0.1;exitDx=0;exitDy=0;exitPerimeter=0;entryX=1.013;entryY=0.601;entryDx=0;entryDy=0;entryPerimeter=0;" parent="WIyWlLk6GJQsqaUBKTNV-1" source="y1xNDrfvwrSLFqzeu8FJ-1" target="y1xNDrfvwrSLFqzeu8FJ-15" edge="1">
          <mxGeometry width="50" height="50" relative="1" as="geometry">
            <mxPoint x="-257" y="-1044" as="sourcePoint" />
            <mxPoint x="-177" y="-1055" as="targetPoint" />
          </mxGeometry>
        </mxCell>
        <mxCell id="OdaUmTdrzh-iGibFLw8H-7" value="" style="endArrow=classic;html=1;rounded=0;exitX=0;exitY=0.3333333333333333;exitDx=0;exitDy=0;exitPerimeter=0;" parent="WIyWlLk6GJQsqaUBKTNV-1" source="y1xNDrfvwrSLFqzeu8FJ-1" target="y1xNDrfvwrSLFqzeu8FJ-7" edge="1">
          <mxGeometry width="50" height="50" relative="1" as="geometry">
            <mxPoint x="-247" y="-1034" as="sourcePoint" />
            <mxPoint x="-167" y="-1045" as="targetPoint" />
          </mxGeometry>
        </mxCell>
        <mxCell id="OdaUmTdrzh-iGibFLw8H-8" value="" style="endArrow=classic;html=1;rounded=0;entryX=0.333;entryY=0.039;entryDx=0;entryDy=0;entryPerimeter=0;" parent="WIyWlLk6GJQsqaUBKTNV-1" target="y1xNDrfvwrSLFqzeu8FJ-2" edge="1">
          <mxGeometry width="50" height="50" relative="1" as="geometry">
            <mxPoint x="-300" y="-1050" as="sourcePoint" />
            <mxPoint x="-157" y="-1035" as="targetPoint" />
          </mxGeometry>
        </mxCell>
        <mxCell id="OdaUmTdrzh-iGibFLw8H-9" value="" style="endArrow=classic;html=1;rounded=0;exitX=0;exitY=1;exitDx=0;exitDy=0;exitPerimeter=0;entryX=0.599;entryY=0.01;entryDx=0;entryDy=0;entryPerimeter=0;" parent="WIyWlLk6GJQsqaUBKTNV-1" source="y1xNDrfvwrSLFqzeu8FJ-1" target="y1xNDrfvwrSLFqzeu8FJ-4" edge="1">
          <mxGeometry width="50" height="50" relative="1" as="geometry">
            <mxPoint x="-227" y="-1014" as="sourcePoint" />
            <mxPoint x="-147" y="-1025" as="targetPoint" />
          </mxGeometry>
        </mxCell>
        <mxCell id="OdaUmTdrzh-iGibFLw8H-10" value="" style="endArrow=classic;html=1;rounded=0;exitX=1;exitY=1;exitDx=0;exitDy=0;exitPerimeter=0;entryX=1;entryY=0;entryDx=0;entryDy=0;" parent="WIyWlLk6GJQsqaUBKTNV-1" source="y1xNDrfvwrSLFqzeu8FJ-1" target="y1xNDrfvwrSLFqzeu8FJ-8" edge="1">
          <mxGeometry width="50" height="50" relative="1" as="geometry">
            <mxPoint x="-217" y="-1004" as="sourcePoint" />
            <mxPoint x="-137" y="-1015" as="targetPoint" />
          </mxGeometry>
        </mxCell>
        <mxCell id="OdaUmTdrzh-iGibFLw8H-11" value="" style="endArrow=classic;html=1;rounded=0;exitX=1;exitY=0.3333333333333333;exitDx=0;exitDy=0;exitPerimeter=0;" parent="WIyWlLk6GJQsqaUBKTNV-1" source="y1xNDrfvwrSLFqzeu8FJ-0" target="y1xNDrfvwrSLFqzeu8FJ-6" edge="1">
          <mxGeometry width="50" height="50" relative="1" as="geometry">
            <mxPoint x="-207" y="-994" as="sourcePoint" />
            <mxPoint x="-127" y="-1005" as="targetPoint" />
          </mxGeometry>
        </mxCell>
        <mxCell id="OdaUmTdrzh-iGibFLw8H-12" value="" style="endArrow=classic;html=1;rounded=0;exitX=0.75;exitY=0.1;exitDx=0;exitDy=0;exitPerimeter=0;entryX=0;entryY=0.5;entryDx=0;entryDy=0;" parent="WIyWlLk6GJQsqaUBKTNV-1" source="y1xNDrfvwrSLFqzeu8FJ-0" target="y1xNDrfvwrSLFqzeu8FJ-8" edge="1">
          <mxGeometry width="50" height="50" relative="1" as="geometry">
            <mxPoint x="-197" y="-984" as="sourcePoint" />
            <mxPoint x="-117" y="-995" as="targetPoint" />
          </mxGeometry>
        </mxCell>
        <mxCell id="OdaUmTdrzh-iGibFLw8H-13" value="" style="endArrow=classic;html=1;rounded=0;entryX=0.026;entryY=0.723;entryDx=0;entryDy=0;entryPerimeter=0;exitX=0.75;exitY=0.1;exitDx=0;exitDy=0;exitPerimeter=0;" parent="WIyWlLk6GJQsqaUBKTNV-1" source="y1xNDrfvwrSLFqzeu8FJ-0" target="y1xNDrfvwrSLFqzeu8FJ-4" edge="1">
          <mxGeometry width="50" height="50" relative="1" as="geometry">
            <mxPoint x="-187" y="-974" as="sourcePoint" />
            <mxPoint x="-107" y="-985" as="targetPoint" />
          </mxGeometry>
        </mxCell>
        <mxCell id="OdaUmTdrzh-iGibFLw8H-14" value="" style="endArrow=classic;html=1;rounded=0;exitX=0.5;exitY=0;exitDx=0;exitDy=0;exitPerimeter=0;entryX=0;entryY=1;entryDx=0;entryDy=0;" parent="WIyWlLk6GJQsqaUBKTNV-1" source="y1xNDrfvwrSLFqzeu8FJ-0" target="y1xNDrfvwrSLFqzeu8FJ-2" edge="1">
          <mxGeometry width="50" height="50" relative="1" as="geometry">
            <mxPoint x="-177" y="-964" as="sourcePoint" />
            <mxPoint x="-97" y="-975" as="targetPoint" />
          </mxGeometry>
        </mxCell>
        <mxCell id="OdaUmTdrzh-iGibFLw8H-15" value="" style="endArrow=classic;html=1;rounded=0;exitX=0.5;exitY=0;exitDx=0;exitDy=0;exitPerimeter=0;entryX=0.5;entryY=1;entryDx=0;entryDy=0;" parent="WIyWlLk6GJQsqaUBKTNV-1" source="y1xNDrfvwrSLFqzeu8FJ-0" target="y1xNDrfvwrSLFqzeu8FJ-7" edge="1">
          <mxGeometry width="50" height="50" relative="1" as="geometry">
            <mxPoint x="-167" y="-954" as="sourcePoint" />
            <mxPoint x="-87" y="-965" as="targetPoint" />
          </mxGeometry>
        </mxCell>
        <mxCell id="OdaUmTdrzh-iGibFLw8H-16" value="" style="endArrow=classic;html=1;rounded=0;exitX=0.25;exitY=0.1;exitDx=0;exitDy=0;exitPerimeter=0;entryX=1;entryY=1;entryDx=0;entryDy=0;" parent="WIyWlLk6GJQsqaUBKTNV-1" source="y1xNDrfvwrSLFqzeu8FJ-0" target="y1xNDrfvwrSLFqzeu8FJ-5" edge="1">
          <mxGeometry width="50" height="50" relative="1" as="geometry">
            <mxPoint x="-157" y="-944" as="sourcePoint" />
            <mxPoint x="-77" y="-955" as="targetPoint" />
          </mxGeometry>
        </mxCell>
        <mxCell id="OdaUmTdrzh-iGibFLw8H-17" value="" style="endArrow=classic;html=1;rounded=0;exitX=0.25;exitY=0.1;exitDx=0;exitDy=0;exitPerimeter=0;" parent="WIyWlLk6GJQsqaUBKTNV-1" source="y1xNDrfvwrSLFqzeu8FJ-0" target="y1xNDrfvwrSLFqzeu8FJ-3" edge="1">
          <mxGeometry width="50" height="50" relative="1" as="geometry">
            <mxPoint x="-147" y="-934" as="sourcePoint" />
            <mxPoint x="-67" y="-945" as="targetPoint" />
          </mxGeometry>
        </mxCell>
        <mxCell id="OdaUmTdrzh-iGibFLw8H-19" value="Сообщение об успехе" style="ellipse;whiteSpace=wrap;html=1;" parent="WIyWlLk6GJQsqaUBKTNV-1" vertex="1">
          <mxGeometry y="-1121" width="120" height="51" as="geometry" />
        </mxCell>
        <mxCell id="OdaUmTdrzh-iGibFLw8H-22" value="" style="endArrow=classic;html=1;rounded=0;exitX=0.029;exitY=0.646;exitDx=0;exitDy=0;exitPerimeter=0;entryX=1;entryY=0.5;entryDx=0;entryDy=0;dashed=1;" parent="WIyWlLk6GJQsqaUBKTNV-1" source="OdaUmTdrzh-iGibFLw8H-19" target="y1xNDrfvwrSLFqzeu8FJ-12" edge="1">
          <mxGeometry width="50" height="50" relative="1" as="geometry">
            <mxPoint x="-267" y="-1054" as="sourcePoint" />
            <mxPoint x="-187" y="-1065" as="targetPoint" />
          </mxGeometry>
        </mxCell>
        <mxCell id="OdaUmTdrzh-iGibFLw8H-23" value="" style="endArrow=classic;html=1;rounded=0;exitX=0.361;exitY=-0.015;exitDx=0;exitDy=0;entryX=0.682;entryY=0.974;entryDx=0;entryDy=0;dashed=1;entryPerimeter=0;exitPerimeter=0;" parent="WIyWlLk6GJQsqaUBKTNV-1" source="OdaUmTdrzh-iGibFLw8H-0" target="y1xNDrfvwrSLFqzeu8FJ-12" edge="1">
          <mxGeometry width="50" height="50" relative="1" as="geometry">
            <mxPoint x="13" y="-1078" as="sourcePoint" />
            <mxPoint x="-70" y="-1073" as="targetPoint" />
          </mxGeometry>
        </mxCell>
        <mxCell id="OdaUmTdrzh-iGibFLw8H-24" value="" style="endArrow=classic;html=1;rounded=0;exitX=0.18;exitY=0.863;exitDx=0;exitDy=0;exitPerimeter=0;dashed=1;" parent="WIyWlLk6GJQsqaUBKTNV-1" source="OdaUmTdrzh-iGibFLw8H-19" target="OdaUmTdrzh-iGibFLw8H-0" edge="1">
          <mxGeometry width="50" height="50" relative="1" as="geometry">
            <mxPoint x="23" y="-1068" as="sourcePoint" />
            <mxPoint x="-60" y="-1063" as="targetPoint" />
          </mxGeometry>
        </mxCell>
        <mxCell id="OdaUmTdrzh-iGibFLw8H-25" value="Обработка данных" style="ellipse;whiteSpace=wrap;html=1;" parent="WIyWlLk6GJQsqaUBKTNV-1" vertex="1">
          <mxGeometry x="-760" y="-953" width="120" height="51" as="geometry" />
        </mxCell>
        <mxCell id="OdaUmTdrzh-iGibFLw8H-26" value="Сообщение об успехе" style="ellipse;whiteSpace=wrap;html=1;" parent="WIyWlLk6GJQsqaUBKTNV-1" vertex="1">
          <mxGeometry x="-880" y="-880" width="120" height="51" as="geometry" />
        </mxCell>
        <mxCell id="OdaUmTdrzh-iGibFLw8H-27" value="" style="endArrow=classic;html=1;rounded=0;exitX=0.678;exitY=0.993;exitDx=0;exitDy=0;exitPerimeter=0;dashed=1;entryX=0.351;entryY=0.03;entryDx=0;entryDy=0;entryPerimeter=0;" parent="WIyWlLk6GJQsqaUBKTNV-1" source="OdaUmTdrzh-iGibFLw8H-25" target="y1xNDrfvwrSLFqzeu8FJ-5" edge="1">
          <mxGeometry width="50" height="50" relative="1" as="geometry">
            <mxPoint x="-620" y="-902" as="sourcePoint" />
            <mxPoint x="-696" y="-860" as="targetPoint" />
          </mxGeometry>
        </mxCell>
        <mxCell id="OdaUmTdrzh-iGibFLw8H-29" value="" style="endArrow=classic;html=1;rounded=0;exitX=1;exitY=0.588;exitDx=0;exitDy=0;exitPerimeter=0;dashed=1;entryX=0;entryY=0.5;entryDx=0;entryDy=0;" parent="WIyWlLk6GJQsqaUBKTNV-1" source="OdaUmTdrzh-iGibFLw8H-26" target="y1xNDrfvwrSLFqzeu8FJ-5" edge="1">
          <mxGeometry width="50" height="50" relative="1" as="geometry">
            <mxPoint x="-740" y="-872" as="sourcePoint" />
            <mxPoint x="-729" y="-837" as="targetPoint" />
          </mxGeometry>
        </mxCell>
        <mxCell id="OdaUmTdrzh-iGibFLw8H-30" value="" style="endArrow=classic;html=1;rounded=0;exitX=0.737;exitY=0.008;exitDx=0;exitDy=0;exitPerimeter=0;dashed=1;entryX=0.096;entryY=0.831;entryDx=0;entryDy=0;entryPerimeter=0;" parent="WIyWlLk6GJQsqaUBKTNV-1" source="OdaUmTdrzh-iGibFLw8H-26" target="OdaUmTdrzh-iGibFLw8H-25" edge="1">
          <mxGeometry width="50" height="50" relative="1" as="geometry">
            <mxPoint x="-659" y="-882" as="sourcePoint" />
            <mxPoint x="-648" y="-847" as="targetPoint" />
          </mxGeometry>
        </mxCell>
        <mxCell id="OdaUmTdrzh-iGibFLw8H-31" value="Да" style="text;html=1;align=center;verticalAlign=middle;resizable=0;points=[];autosize=1;strokeColor=none;fillColor=none;" parent="WIyWlLk6GJQsqaUBKTNV-1" vertex="1">
          <mxGeometry x="150" y="-847.5" width="40" height="30" as="geometry" />
        </mxCell>
        <mxCell id="OdaUmTdrzh-iGibFLw8H-32" value="Нет" style="text;html=1;align=center;verticalAlign=middle;resizable=0;points=[];autosize=1;strokeColor=none;fillColor=none;" parent="WIyWlLk6GJQsqaUBKTNV-1" vertex="1">
          <mxGeometry x="370" y="-847.5" width="40" height="30" as="geometry" />
        </mxCell>
        <mxCell id="OdaUmTdrzh-iGibFLw8H-33" value="&lt;font style=&quot;font-size: 9px;&quot;&gt;&amp;lt;&amp;lt;include&amp;gt;&amp;gt;&lt;/font&gt;" style="text;html=1;align=center;verticalAlign=middle;resizable=0;points=[];autosize=1;strokeColor=none;fillColor=none;rotation=0;" parent="WIyWlLk6GJQsqaUBKTNV-1" vertex="1">
          <mxGeometry x="-70" y="-1110.5" width="70" height="30" as="geometry" />
        </mxCell>
        <mxCell id="OdaUmTdrzh-iGibFLw8H-34" value="&lt;font style=&quot;font-size: 9px;&quot;&gt;&amp;lt;&amp;lt;include&amp;gt;&amp;gt;&lt;/font&gt;" style="text;html=1;align=center;verticalAlign=middle;resizable=0;points=[];autosize=1;strokeColor=none;fillColor=none;rotation=-28;" parent="WIyWlLk6GJQsqaUBKTNV-1" vertex="1">
          <mxGeometry x="-60" y="-1080" width="70" height="30" as="geometry" />
        </mxCell>
        <mxCell id="OdaUmTdrzh-iGibFLw8H-35" value="&lt;font style=&quot;font-size: 5px;&quot;&gt;&amp;lt;&amp;lt;include&amp;gt;&amp;gt;&lt;/font&gt;" style="text;html=1;align=center;verticalAlign=middle;resizable=0;points=[];autosize=1;strokeColor=none;fillColor=none;rotation=-8;" parent="WIyWlLk6GJQsqaUBKTNV-1" vertex="1">
          <mxGeometry x="-120" y="-1070" width="50" height="30" as="geometry" />
        </mxCell>
        <mxCell id="OdaUmTdrzh-iGibFLw8H-36" value="&lt;font style=&quot;font-size: 9px;&quot;&gt;&amp;lt;&amp;lt;include&amp;gt;&amp;gt;&lt;/font&gt;" style="text;html=1;align=center;verticalAlign=middle;resizable=0;points=[];autosize=1;strokeColor=none;fillColor=none;rotation=-36;" parent="WIyWlLk6GJQsqaUBKTNV-1" vertex="1">
          <mxGeometry x="-820" y="-914.25" width="70" height="30" as="geometry" />
        </mxCell>
        <mxCell id="OdaUmTdrzh-iGibFLw8H-37" value="&lt;font style=&quot;font-size: 9px;&quot;&gt;&amp;lt;&amp;lt;include&amp;gt;&amp;gt;&lt;/font&gt;" style="text;html=1;align=center;verticalAlign=middle;resizable=0;points=[];autosize=1;strokeColor=none;fillColor=none;rotation=10;" parent="WIyWlLk6GJQsqaUBKTNV-1" vertex="1">
          <mxGeometry x="-769" y="-873.5" width="70" height="30" as="geometry" />
        </mxCell>
        <mxCell id="OdaUmTdrzh-iGibFLw8H-38" value="&lt;font style=&quot;font-size: 9px;&quot;&gt;&amp;lt;&amp;lt;include&amp;gt;&amp;gt;&lt;/font&gt;" style="text;html=1;align=center;verticalAlign=middle;resizable=0;points=[];autosize=1;strokeColor=none;fillColor=none;rotation=-14;" parent="WIyWlLk6GJQsqaUBKTNV-1" vertex="1">
          <mxGeometry x="-740" y="-902" width="70" height="30" as="geometry" />
        </mxCell>
      </root>
    </mxGraphModel>
  </diagram>
</mxfile>
